<?xml version="1.0" encoding="UTF-8" standalone="no"?>
<!DOCTYPE svg PUBLIC "-//W3C//DTD SVG 1.1//EN" "http://www.w3.org/Graphics/SVG/1.1/DTD/svg11.dtd">
<svg width="100%" height="100%" viewBox="0 0 805 805" version="1.1" xmlns="http://www.w3.org/2000/svg" xmlns:xlink="http://www.w3.org/1999/xlink" xml:space="preserve" xmlns:serif="http://www.serif.com/" style="fill-rule:evenodd;clip-rule:evenodd;stroke-linejoin:round;stroke-miterlimit:2;">
    <g transform="matrix(4.16667,0,0,4.16667,0,0)">
        <path d="M96.377,17.685C139.865,17.685 175.326,53.146 175.326,96.612C175.326,140.099 139.865,175.56 96.377,175.56L96.377,152.464C127.128,152.464 152.23,127.362 152.23,96.612C152.23,65.861 127.128,40.781 96.377,40.781L96.377,17.685ZM96.377,175.56C52.912,175.56 17.429,140.099 17.429,96.612C17.429,53.146 52.912,17.685 96.377,17.685L96.377,40.781C65.627,40.781 40.547,65.861 40.547,96.612C40.547,127.362 65.627,152.464 96.377,152.464L96.377,175.56Z" style="fill:rgb(245,130,31);"/>
        <path d="M96.376,16.513L96.378,16.513L96.378,16.518C118.448,16.518 138.478,25.513 152.988,40.02C167.498,54.527 176.493,74.552 176.493,96.61L176.498,96.61L176.498,96.612L176.493,96.612C176.493,118.682 167.498,138.712 152.988,153.222C138.478,167.732 118.448,176.727 96.379,176.727L96.379,176.732L96.377,176.732L96.377,176.727C74.318,176.727 54.288,167.732 39.775,153.222C25.262,138.712 16.262,118.682 16.262,96.613L16.257,96.613L16.257,96.611L16.262,96.611C16.262,74.555 25.264,54.53 39.78,40.02C54.293,25.513 74.321,16.518 96.376,16.518L96.376,16.513ZM96.378,18.852L96.378,18.857L96.376,18.857L96.376,18.852C74.967,18.853 55.523,27.588 41.428,41.677C27.336,55.764 18.596,75.202 18.596,96.611L18.601,96.611L18.601,96.613L18.596,96.613C18.596,118.029 27.338,137.473 41.432,151.565C55.527,165.657 74.971,174.393 96.377,174.393L96.377,174.388L96.379,174.388L96.379,174.393C117.795,174.392 137.239,165.657 151.33,151.565C165.423,137.473 174.159,118.029 174.159,96.612L174.154,96.612L174.154,96.61L174.159,96.61C174.158,75.205 165.423,55.767 151.331,41.677C137.239,27.588 117.795,18.852 96.378,18.852Z" style="fill:rgb(237,28,36);fill-rule:nonzero;"/>
        <path d="M96.376,39.608L96.378,39.608L96.378,39.613C112.076,39.614 126.331,46.013 136.66,56.336C146.99,66.662 153.397,80.912 153.397,96.61L153.402,96.61L153.402,96.612L153.397,96.612C153.397,112.314 146.992,126.57 136.663,136.898C126.336,147.226 112.08,153.631 96.379,153.632L96.379,153.637L96.377,153.637L96.377,153.632C80.678,153.632 66.427,147.225 56.102,136.894C45.779,126.565 39.38,112.311 39.379,96.613L39.375,96.613L39.375,96.611L39.379,96.611C39.379,80.909 45.779,66.659 56.102,56.336C66.425,46.013 80.675,39.614 96.376,39.613L96.376,39.608ZM96.378,41.948L96.378,41.952L96.376,41.952L96.376,41.948C81.328,41.948 67.664,48.089 57.759,57.993C47.855,67.898 41.714,81.562 41.714,96.611L41.718,96.611L41.718,96.613L41.714,96.613C41.714,111.664 47.855,125.336 57.759,135.245C67.661,145.153 81.325,151.297 96.377,151.297L96.377,151.293L96.379,151.293L96.379,151.297C111.427,151.297 125.096,145.151 135.007,135.241C144.917,125.331 151.063,111.661 151.063,96.612L151.058,96.612L151.058,96.61L151.063,96.61C151.063,81.56 144.918,67.895 135.011,57.993C125.101,48.089 111.43,41.948 96.378,41.948Z" style="fill:rgb(237,28,36);fill-rule:nonzero;"/>
        <g transform="matrix(0.963176,0,0,0.963176,1.28207,2.05197)">
            <clipPath id="_clip1">
                <path d="M36.25,63.985L51.865,120.536C64.558,117.33 85.8,109.479 90.227,121.103C98.842,143.806 109.986,131.571 171.117,118.028L130.378,96.612L156.658,60.322C92.779,76.438 79.039,85.969 72.627,62.197C69.596,50.922 47.918,60.627 36.25,63.985Z"/>
            </clipPath>
            <g clip-path="url(#_clip1)">
                <path d="M39.141,181.07L5.936,57.144L10.804,55.839L44.01,179.765L39.141,181.07Z" style="fill:rgb(241,90,34);fill-rule:nonzero;"/>
                <path d="M44.01,179.765L10.804,55.839L11.996,55.52L45.202,179.446L44.01,179.765Z" style="fill:rgb(241,90,34);fill-rule:nonzero;"/>
                <path d="M45.202,179.446L11.996,55.52L13.188,55.201L46.394,179.126L45.202,179.446Z" style="fill:rgb(241,92,34);fill-rule:nonzero;"/>
                <path d="M46.394,179.126L13.188,55.201L14.38,54.881L47.586,178.807L46.394,179.126Z" style="fill:rgb(241,93,34);fill-rule:nonzero;"/>
                <path d="M47.586,178.807L14.38,54.881L15.572,54.562L48.777,178.488L47.586,178.807Z" style="fill:rgb(241,95,34);fill-rule:nonzero;"/>
                <path d="M48.777,178.488L15.572,54.562L16.763,54.243L49.969,178.168L48.777,178.488Z" style="fill:rgb(242,97,34);fill-rule:nonzero;"/>
                <path d="M49.969,178.168L16.763,54.243L17.955,53.923L51.161,177.849L49.969,178.168Z" style="fill:rgb(242,99,33);fill-rule:nonzero;"/>
                <path d="M51.161,177.849L17.955,53.923L19.147,53.604L52.353,177.53L51.161,177.849Z" style="fill:rgb(242,100,33);fill-rule:nonzero;"/>
                <path d="M52.353,177.53L19.147,53.604L20.339,53.285L53.545,177.21L52.353,177.53Z" style="fill:rgb(242,102,33);fill-rule:nonzero;"/>
                <path d="M53.545,177.21L20.339,53.285L21.531,52.965L54.736,176.891L53.545,177.21Z" style="fill:rgb(242,104,33);fill-rule:nonzero;"/>
                <path d="M54.736,176.891L21.531,52.965L22.722,52.646L55.928,176.572L54.736,176.891Z" style="fill:rgb(242,105,33);fill-rule:nonzero;"/>
                <path d="M55.928,176.572L22.722,52.646L23.914,52.327L57.12,176.252L55.928,176.572Z" style="fill:rgb(243,107,33);fill-rule:nonzero;"/>
                <path d="M57.12,176.252L23.914,52.327L25.106,52.007L58.312,175.933L57.12,176.252Z" style="fill:rgb(243,109,33);fill-rule:nonzero;"/>
                <path d="M58.312,175.933L25.106,52.007L26.298,51.688L59.504,175.614L58.312,175.933Z" style="fill:rgb(243,110,33);fill-rule:nonzero;"/>
                <path d="M59.504,175.614L26.298,51.688L27.49,51.368L60.695,175.294L59.504,175.614Z" style="fill:rgb(243,113,33);fill-rule:nonzero;"/>
                <path d="M60.695,175.294L27.49,51.368L28.681,51.049L61.887,174.975L60.695,175.294Z" style="fill:rgb(243,114,32);fill-rule:nonzero;"/>
                <path d="M61.887,174.975L28.681,51.049L29.873,50.73L63.079,174.656L61.887,174.975Z" style="fill:rgb(243,116,32);fill-rule:nonzero;"/>
                <path d="M63.079,174.656L29.873,50.73L31.065,50.41L64.271,174.336L63.079,174.656Z" style="fill:rgb(244,117,32);fill-rule:nonzero;"/>
                <path d="M64.271,174.336L31.065,50.41L32.257,50.091L65.463,174.017L64.271,174.336Z" style="fill:rgb(244,118,32);fill-rule:nonzero;"/>
                <path d="M65.463,174.017L32.257,50.091L33.449,49.772L66.655,173.698L65.463,174.017Z" style="fill:rgb(244,120,32);fill-rule:nonzero;"/>
                <path d="M66.655,173.698L33.449,49.772L34.641,49.452L67.846,173.378L66.655,173.698Z" style="fill:rgb(244,121,32);fill-rule:nonzero;"/>
                <path d="M67.846,173.378L34.641,49.452L35.832,49.133L69.038,173.059L67.846,173.378Z" style="fill:rgb(244,123,32);fill-rule:nonzero;"/>
                <path d="M69.038,173.059L35.832,49.133L37.024,48.814L70.23,172.74L69.038,173.059Z" style="fill:rgb(244,124,32);fill-rule:nonzero;"/>
                <path d="M70.23,172.74L37.024,48.814L38.216,48.494L71.422,172.42L70.23,172.74Z" style="fill:rgb(245,126,32);fill-rule:nonzero;"/>
                <path d="M71.422,172.42L38.216,48.494L39.408,48.175L72.614,172.101L71.422,172.42Z" style="fill:rgb(245,127,31);fill-rule:nonzero;"/>
                <path d="M72.614,172.101L39.408,48.175L40.6,47.856L73.806,171.782L72.614,172.101Z" style="fill:rgb(245,129,31);fill-rule:nonzero;"/>
                <path d="M73.806,171.782L40.6,47.856L41.791,47.536L74.997,171.462L73.806,171.782Z" style="fill:rgb(245,130,31);fill-rule:nonzero;"/>
                <path d="M74.997,171.462L41.791,47.536L46.66,46.232L79.866,170.158L74.997,171.462Z" style="fill:rgb(245,130,31);fill-rule:nonzero;"/>
                <path d="M74.997,171.462L41.791,47.536L42.983,47.217L76.189,171.143L74.997,171.462Z" style="fill:rgb(245,130,31);fill-rule:nonzero;"/>
                <path d="M76.189,171.143L42.983,47.217L44.175,46.898L77.381,170.823L76.189,171.143Z" style="fill:rgb(246,136,31);fill-rule:nonzero;"/>
                <path d="M77.381,170.823L44.175,46.898L45.367,46.578L78.573,170.504L77.381,170.823Z" style="fill:rgb(247,142,30);fill-rule:nonzero;"/>
                <path d="M78.573,170.504L45.367,46.578L46.559,46.259L79.765,170.185L78.573,170.504Z" style="fill:rgb(247,147,29);fill-rule:nonzero;"/>
                <path d="M79.765,170.185L46.559,46.259L47.751,45.94L80.956,169.865L79.765,170.185Z" style="fill:rgb(248,154,28);fill-rule:nonzero;"/>
                <path d="M80.956,169.865L47.751,45.94L48.942,45.62L82.148,169.546L80.956,169.865Z" style="fill:rgb(249,160,27);fill-rule:nonzero;"/>
                <path d="M82.148,169.546L48.942,45.62L50.134,45.301L83.34,169.227L82.148,169.546Z" style="fill:rgb(250,166,25);fill-rule:nonzero;"/>
                <path d="M83.34,169.227L50.134,45.301L51.326,44.982L84.532,168.907L83.34,169.227Z" style="fill:rgb(251,172,24);fill-rule:nonzero;"/>
                <path d="M84.532,168.907L51.326,44.982L52.518,44.662L85.724,168.588L84.532,168.907Z" style="fill:rgb(252,178,21);fill-rule:nonzero;"/>
                <path d="M85.724,168.588L52.518,44.662L53.71,44.343L86.916,168.269L85.724,168.588Z" style="fill:rgb(253,185,18);fill-rule:nonzero;"/>
                <path d="M86.916,168.269L53.71,44.343L54.902,44.024L88.107,167.949L86.916,168.269Z" style="fill:rgb(254,191,15);fill-rule:nonzero;"/>
                <path d="M88.107,167.949L54.902,44.024L56.093,43.704L89.299,167.63L88.107,167.949Z" style="fill:rgb(255,197,10);fill-rule:nonzero;"/>
                <path d="M89.299,167.63L56.093,43.704L57.285,43.385L90.491,167.311L89.299,167.63Z" style="fill:rgb(255,203,3);fill-rule:nonzero;"/>
                <path d="M90.491,167.311L57.285,43.385L62.154,42.08L95.36,166.006L90.491,167.311Z" style="fill:rgb(255,203,3);fill-rule:nonzero;"/>
                <path d="M90.491,167.311L57.285,43.385L58.477,43.065L91.683,166.991L90.491,167.311Z" style="fill:rgb(255,203,3);fill-rule:nonzero;"/>
                <path d="M91.683,166.991L58.477,43.065L59.669,42.746L92.875,166.672L91.683,166.991Z" style="fill:rgb(254,191,15);fill-rule:nonzero;"/>
                <path d="M92.875,166.672L59.669,42.746L60.861,42.427L94.066,166.353L92.875,166.672Z" style="fill:rgb(252,178,21);fill-rule:nonzero;"/>
                <path d="M94.066,166.353L60.861,42.427L62.052,42.107L95.258,166.033L94.066,166.353Z" style="fill:rgb(250,166,25);fill-rule:nonzero;"/>
                <path d="M95.258,166.033L62.052,42.107L63.244,41.788L96.45,165.714L95.258,166.033Z" style="fill:rgb(248,154,28);fill-rule:nonzero;"/>
                <path d="M96.45,165.714L63.244,41.788L64.436,41.469L97.642,165.395L96.45,165.714Z" style="fill:rgb(247,142,30);fill-rule:nonzero;"/>
                <path d="M97.642,165.395L64.436,41.469L65.628,41.149L98.834,165.075L97.642,165.395Z" style="fill:rgb(245,130,31);fill-rule:nonzero;"/>
                <path d="M98.834,165.075L65.628,41.149L66.82,40.83L100.026,164.756L98.834,165.075Z" style="fill:rgb(244,118,32);fill-rule:nonzero;"/>
                <path d="M100.026,164.756L66.82,40.83L68.011,40.511L101.217,164.437L100.026,164.756Z" style="fill:rgb(242,104,33);fill-rule:nonzero;"/>
                <path d="M101.217,164.437L68.011,40.511L69.203,40.191L102.409,164.117L101.217,164.437Z" style="fill:rgb(241,90,34);fill-rule:nonzero;"/>
                <path d="M102.409,164.117L69.203,40.191L70.395,39.872L103.601,163.798L102.409,164.117Z" style="fill:rgb(240,74,34);fill-rule:nonzero;"/>
                <path d="M103.601,163.798L70.395,39.872L71.587,39.553L104.793,163.479L103.601,163.798Z" style="fill:rgb(238,55,35);fill-rule:nonzero;"/>
                <path d="M104.793,163.479L71.587,39.553L72.779,39.233L105.985,163.159L104.793,163.479Z" style="fill:rgb(237,28,36);fill-rule:nonzero;"/>
                <path d="M105.985,163.159L72.779,39.233L77.647,37.929L110.853,161.855L105.985,163.159Z" style="fill:rgb(237,28,36);fill-rule:nonzero;"/>
                <path d="M105.985,163.159L72.779,39.233L73.971,38.914L107.176,162.84L105.985,163.159Z" style="fill:rgb(237,28,36);fill-rule:nonzero;"/>
                <path d="M107.176,162.84L73.971,38.914L75.162,38.595L108.368,162.52L107.176,162.84Z" style="fill:rgb(237,33,36);fill-rule:nonzero;"/>
                <path d="M108.368,162.52L75.162,38.595L76.354,38.275L109.56,162.201L108.368,162.52Z" style="fill:rgb(238,38,36);fill-rule:nonzero;"/>
                <path d="M109.56,162.201L76.354,38.275L77.546,37.956L110.752,161.882L109.56,162.201Z" style="fill:rgb(238,41,36);fill-rule:nonzero;"/>
                <path d="M110.752,161.882L77.546,37.956L78.738,37.637L111.944,161.562L110.752,161.882Z" style="fill:rgb(238,46,35);fill-rule:nonzero;"/>
                <path d="M111.944,161.562L78.738,37.637L79.93,37.317L113.136,161.243L111.944,161.562Z" style="fill:rgb(238,50,35);fill-rule:nonzero;"/>
                <path d="M113.136,161.243L79.93,37.317L81.121,36.998L114.327,160.924L113.136,161.243Z" style="fill:rgb(238,55,35);fill-rule:nonzero;"/>
                <path d="M114.327,160.924L81.121,36.998L82.313,36.679L115.519,160.604L114.327,160.924Z" style="fill:rgb(239,57,35);fill-rule:nonzero;"/>
                <path d="M115.519,160.604L82.313,36.679L83.505,36.359L116.711,160.285L115.519,160.604Z" style="fill:rgb(239,60,35);fill-rule:nonzero;"/>
                <path d="M116.711,160.285L83.505,36.359L84.697,36.04L117.903,159.966L116.711,160.285Z" style="fill:rgb(239,64,35);fill-rule:nonzero;"/>
                <path d="M117.903,159.966L84.697,36.04L85.889,35.721L119.095,159.646L117.903,159.966Z" style="fill:rgb(239,67,35);fill-rule:nonzero;"/>
                <path d="M119.095,159.646L85.889,35.721L87.081,35.401L120.286,159.327L119.095,159.646Z" style="fill:rgb(239,69,35);fill-rule:nonzero;"/>
                <path d="M120.286,159.327L87.081,35.401L88.272,35.082L121.478,159.008L120.286,159.327Z" style="fill:rgb(240,73,35);fill-rule:nonzero;"/>
                <path d="M121.478,159.008L88.272,35.082L89.464,34.762L122.67,158.688L121.478,159.008Z" style="fill:rgb(240,75,34);fill-rule:nonzero;"/>
                <path d="M122.67,158.688L89.464,34.762L90.656,34.443L123.862,158.369L122.67,158.688Z" style="fill:rgb(240,78,34);fill-rule:nonzero;"/>
                <path d="M123.862,158.369L90.656,34.443L91.848,34.124L125.054,158.05L123.862,158.369Z" style="fill:rgb(240,80,34);fill-rule:nonzero;"/>
                <path d="M125.054,158.05L91.848,34.124L93.04,33.804L126.246,157.73L125.054,158.05Z" style="fill:rgb(240,83,34);fill-rule:nonzero;"/>
                <path d="M126.246,157.73L93.04,33.804L94.232,33.485L127.437,157.411L126.246,157.73Z" style="fill:rgb(241,86,34);fill-rule:nonzero;"/>
                <path d="M127.437,157.411L94.232,33.485L95.423,33.166L128.629,157.092L127.437,157.411Z" style="fill:rgb(241,89,34);fill-rule:nonzero;"/>
                <path d="M128.629,157.092L95.423,33.166L96.615,32.846L129.821,156.772L128.629,157.092Z" style="fill:rgb(241,91,34);fill-rule:nonzero;"/>
                <path d="M129.821,156.772L96.615,32.846L97.807,32.527L131.013,156.453L129.821,156.772Z" style="fill:rgb(241,93,34);fill-rule:nonzero;"/>
                <path d="M131.013,156.453L97.807,32.527L98.999,32.208L132.205,156.134L131.013,156.453Z" style="fill:rgb(241,96,34);fill-rule:nonzero;"/>
                <path d="M132.205,156.134L98.999,32.208L100.191,31.888L133.396,155.814L132.205,156.134Z" style="fill:rgb(242,99,33);fill-rule:nonzero;"/>
                <path d="M133.396,155.814L100.191,31.888L101.382,31.569L134.588,155.495L133.396,155.814Z" style="fill:rgb(242,100,33);fill-rule:nonzero;"/>
                <path d="M134.588,155.495L101.382,31.569L102.574,31.25L135.78,155.175L134.588,155.495Z" style="fill:rgb(242,103,33);fill-rule:nonzero;"/>
                <path d="M135.78,155.175L102.574,31.25L103.766,30.93L136.972,154.856L135.78,155.175Z" style="fill:rgb(242,105,33);fill-rule:nonzero;"/>
                <path d="M136.972,154.856L103.766,30.93L104.958,30.611L138.164,154.537L136.972,154.856Z" style="fill:rgb(243,108,33);fill-rule:nonzero;"/>
                <path d="M138.164,154.537L104.958,30.611L106.15,30.292L139.356,154.217L138.164,154.537Z" style="fill:rgb(243,109,33);fill-rule:nonzero;"/>
                <path d="M139.356,154.217L106.15,30.292L107.341,29.972L140.547,153.898L139.356,154.217Z" style="fill:rgb(243,112,33);fill-rule:nonzero;"/>
                <path d="M140.547,153.898L107.341,29.972L108.533,29.653L141.739,153.579L140.547,153.898Z" style="fill:rgb(243,114,32);fill-rule:nonzero;"/>
                <path d="M141.739,153.579L108.533,29.653L109.725,29.334L142.931,153.259L141.739,153.579Z" style="fill:rgb(244,116,32);fill-rule:nonzero;"/>
                <path d="M142.931,153.259L109.725,29.334L110.917,29.014L144.123,152.94L142.931,153.259Z" style="fill:rgb(244,118,32);fill-rule:nonzero;"/>
                <path d="M144.123,152.94L110.917,29.014L112.109,28.695L145.315,152.621L144.123,152.94Z" style="fill:rgb(244,120,32);fill-rule:nonzero;"/>
                <path d="M145.315,152.621L112.109,28.695L113.301,28.376L146.506,152.301L145.315,152.621Z" style="fill:rgb(244,122,32);fill-rule:nonzero;"/>
                <path d="M146.506,152.301L113.301,28.376L114.492,28.056L147.698,151.982L146.506,152.301Z" style="fill:rgb(244,124,32);fill-rule:nonzero;"/>
                <path d="M147.698,151.982L114.492,28.056L115.684,27.737L148.89,151.663L147.698,151.982Z" style="fill:rgb(245,126,32);fill-rule:nonzero;"/>
                <path d="M148.89,151.663L115.684,27.737L116.876,27.417L150.082,151.343L148.89,151.663Z" style="fill:rgb(245,128,31);fill-rule:nonzero;"/>
                <path d="M150.082,151.343L116.876,27.417L118.068,27.098L151.274,151.024L150.082,151.343Z" style="fill:rgb(245,130,31);fill-rule:nonzero;"/>
                <path d="M151.274,151.024L118.068,27.098L122.937,25.794L156.142,149.719L151.274,151.024Z" style="fill:rgb(245,130,31);fill-rule:nonzero;"/>
                <path d="M151.274,151.024L118.068,27.098L119.26,26.779L152.465,150.705L151.274,151.024Z" style="fill:rgb(245,130,31);fill-rule:nonzero;"/>
                <path d="M152.465,150.705L119.26,26.779L120.451,26.459L153.657,150.385L152.465,150.705Z" style="fill:rgb(245,129,31);fill-rule:nonzero;"/>
                <path d="M153.657,150.385L120.451,26.459L121.643,26.14L154.849,150.066L153.657,150.385Z" style="fill:rgb(245,128,31);fill-rule:nonzero;"/>
                <path d="M154.849,150.066L121.643,26.14L122.835,25.821L156.041,149.747L154.849,150.066Z" style="fill:rgb(245,127,31);fill-rule:nonzero;"/>
                <path d="M156.041,149.747L122.835,25.821L124.027,25.501L157.233,149.427L156.041,149.747Z" style="fill:rgb(245,126,32);fill-rule:nonzero;"/>
                <path d="M157.233,149.427L124.027,25.501L125.219,25.182L158.425,149.108L157.233,149.427Z" style="fill:rgb(244,125,32);fill-rule:nonzero;"/>
                <path d="M158.425,149.108L125.219,25.182L126.41,24.863L159.616,148.789L158.425,149.108Z" style="fill:rgb(244,124,32);fill-rule:nonzero;"/>
                <path d="M159.616,148.789L126.41,24.863L127.602,24.543L160.808,148.469L159.616,148.789Z" style="fill:rgb(244,123,32);fill-rule:nonzero;"/>
                <path d="M160.808,148.469L127.602,24.543L128.794,24.224L162,148.15L160.808,148.469Z" style="fill:rgb(244,122,32);fill-rule:nonzero;"/>
                <path d="M162,148.15L128.794,24.224L129.986,23.905L163.192,147.831L162,148.15Z" style="fill:rgb(244,121,32);fill-rule:nonzero;"/>
                <path d="M163.192,147.831L129.986,23.905L131.178,23.585L164.384,147.511L163.192,147.831Z" style="fill:rgb(244,120,32);fill-rule:nonzero;"/>
                <path d="M164.384,147.511L131.178,23.585L132.37,23.266L165.575,147.192L164.384,147.511Z" style="fill:rgb(244,119,32);fill-rule:nonzero;"/>
                <path d="M165.575,147.192L132.37,23.266L133.561,22.947L166.767,146.872L165.575,147.192Z" style="fill:rgb(244,118,32);fill-rule:nonzero;"/>
                <path d="M166.767,146.872L133.561,22.947L134.753,22.627L167.959,146.553L166.767,146.872Z" style="fill:rgb(244,117,32);fill-rule:nonzero;"/>
                <path d="M167.959,146.553L134.753,22.627L135.945,22.308L169.151,146.234L167.959,146.553Z" style="fill:rgb(244,116,32);fill-rule:nonzero;"/>
                <path d="M169.151,146.234L135.945,22.308L137.137,21.989L170.343,145.914L169.151,146.234Z" style="fill:rgb(243,115,32);fill-rule:nonzero;"/>
                <path d="M170.343,145.914L137.137,21.989L138.329,21.669L171.534,145.595L170.343,145.914Z" style="fill:rgb(243,114,32);fill-rule:nonzero;"/>
                <path d="M171.534,145.595L138.329,21.669L139.52,21.35L172.726,145.276L171.534,145.595Z" style="fill:rgb(243,113,33);fill-rule:nonzero;"/>
                <path d="M172.726,145.276L139.52,21.35L140.712,21.031L173.918,144.956L172.726,145.276Z" style="fill:rgb(243,112,33);fill-rule:nonzero;"/>
                <path d="M173.918,144.956L140.712,21.031L141.904,20.711L175.11,144.637L173.918,144.956Z" style="fill:rgb(243,111,33);fill-rule:nonzero;"/>
                <path d="M175.11,144.637L141.904,20.711L143.096,20.392L176.302,144.318L175.11,144.637Z" style="fill:rgb(243,109,33);fill-rule:nonzero;"/>
                <path d="M176.302,144.318L143.096,20.392L144.288,20.073L177.494,143.998L176.302,144.318Z" style="fill:rgb(243,109,33);fill-rule:nonzero;"/>
                <path d="M177.494,143.998L144.288,20.073L145.479,19.753L178.685,143.679L177.494,143.998Z" style="fill:rgb(243,108,33);fill-rule:nonzero;"/>
                <path d="M178.685,143.679L145.479,19.753L146.671,19.434L179.877,143.36L178.685,143.679Z" style="fill:rgb(242,106,33);fill-rule:nonzero;"/>
                <path d="M179.877,143.36L146.671,19.434L147.863,19.114L181.069,143.04L179.877,143.36Z" style="fill:rgb(242,105,33);fill-rule:nonzero;"/>
                <path d="M181.069,143.04L147.863,19.114L149.055,18.795L182.261,142.721L181.069,143.04Z" style="fill:rgb(242,104,33);fill-rule:nonzero;"/>
                <path d="M182.261,142.721L149.055,18.795L150.247,18.476L183.453,142.402L182.261,142.721Z" style="fill:rgb(242,103,33);fill-rule:nonzero;"/>
                <path d="M183.453,142.402L150.247,18.476L151.439,18.156L184.644,142.082L183.453,142.402Z" style="fill:rgb(242,102,33);fill-rule:nonzero;"/>
                <path d="M184.644,142.082L151.439,18.156L152.63,17.837L185.836,141.763L184.644,142.082Z" style="fill:rgb(242,100,33);fill-rule:nonzero;"/>
                <path d="M185.836,141.763L152.63,17.837L153.822,17.518L187.028,141.444L185.836,141.763Z" style="fill:rgb(242,100,33);fill-rule:nonzero;"/>
                <path d="M187.028,141.444L153.822,17.518L155.014,17.198L188.22,141.124L187.028,141.444Z" style="fill:rgb(242,99,33);fill-rule:nonzero;"/>
                <path d="M188.22,141.124L155.014,17.198L156.206,16.879L189.412,140.805L188.22,141.124Z" style="fill:rgb(242,97,34);fill-rule:nonzero;"/>
                <path d="M189.412,140.805L156.206,16.879L157.398,16.56L190.603,140.486L189.412,140.805Z" style="fill:rgb(241,96,34);fill-rule:nonzero;"/>
                <path d="M190.603,140.486L157.398,16.56L158.589,16.24L191.795,140.166L190.603,140.486Z" style="fill:rgb(241,95,34);fill-rule:nonzero;"/>
                <path d="M191.795,140.166L158.589,16.24L159.781,15.921L192.987,139.847L191.795,140.166Z" style="fill:rgb(241,93,34);fill-rule:nonzero;"/>
                <path d="M192.987,139.847L159.781,15.921L160.973,15.602L194.179,139.527L192.987,139.847Z" style="fill:rgb(241,93,34);fill-rule:nonzero;"/>
                <path d="M194.179,139.527L160.973,15.602L162.165,15.282L195.371,139.208L194.179,139.527Z" style="fill:rgb(241,91,34);fill-rule:nonzero;"/>
                <path d="M195.371,139.208L162.165,15.282L163.357,14.963L196.563,138.889L195.371,139.208Z" style="fill:rgb(241,90,34);fill-rule:nonzero;"/>
                <path d="M196.563,138.889L163.357,14.963L168.225,13.658L201.431,137.584L196.563,138.889Z" style="fill:rgb(241,90,34);fill-rule:nonzero;"/>
            </g>
        </g>
        <g transform="matrix(0.963176,0,0,0.963176,1.28207,2.05197)">
            <path d="M37.682,64.782L52.685,119.117C54.093,118.748 55.532,118.35 57.028,117.937C70.058,114.333 87.106,109.619 91.321,120.687L91.321,120.691C97.253,136.325 104.699,134.269 131.579,126.844C141.042,124.23 152.843,120.97 167.76,117.584L129.833,97.646L128.638,97.018L129.43,95.925L153.816,62.25C143.24,64.95 134.241,67.405 126.429,69.536C87.365,80.193 77.03,83.013 71.497,62.499C69.932,56.679 62.006,57.508 53.558,59.78C50.047,60.723 46.53,61.89 43.283,62.968C41.269,63.636 39.354,64.272 37.682,64.782ZM50.739,120.847L35.124,64.297L34.816,63.18L35.93,62.859C37.981,62.269 40.194,61.534 42.551,60.752C45.883,59.647 49.493,58.449 52.953,57.518C62.589,54.928 71.69,54.201 73.758,61.895C78.68,80.143 88.541,77.453 125.815,67.284C134.538,64.904 144.714,62.128 156.368,59.187L156.374,59.186L159.488,58.408L157.605,61.008L132.117,96.205L171.661,116.993L174.484,118.477L171.369,119.168C155.07,122.779 142.302,126.306 132.201,129.096C103.716,136.964 95.824,139.144 89.135,121.519L89.133,121.52C85.675,112.439 69.791,116.832 57.65,120.189C55.667,120.737 53.777,121.26 52.151,121.671L52.149,121.671L51.043,121.948L50.739,120.847Z" style="fill:rgb(241,90,34);fill-rule:nonzero;"/>
        </g>
        <path d="M143.856,56.614L143.856,51.336L143.986,51.467L147.127,44.946L143.856,46.495L143.856,44.401L147.869,42.547L149.526,44.205L143.856,56.614ZM143.856,44.401L143.856,46.495L140.584,48.065L143.856,51.336L143.856,56.614L142.656,59.231L141.042,57.617L143.136,53.19L138.84,48.872L135.83,50.289L135.83,48.065L143.856,44.401ZM135.83,40.955L135.83,38.534C135.961,38.382 136.07,38.251 136.157,38.076C136.659,37.313 136.811,36.637 136.593,36.026C136.462,35.721 136.222,35.372 135.83,35.023L135.83,32.69C136.659,33.234 137.226,33.649 137.575,33.976C137.902,34.303 138.185,34.631 138.382,35.001C138.73,35.656 138.883,36.353 138.818,37.073C138.752,37.793 138.491,38.513 138.011,39.232C137.553,39.93 137.029,40.432 136.397,40.737C136.222,40.824 136.026,40.89 135.83,40.955ZM135.83,32.69L135.83,35.023C135.503,34.696 135.088,34.369 134.543,34.042L132.689,32.82L132.689,30.639L135.83,32.69ZM135.83,38.534L135.83,40.955C135.372,41.086 134.848,41.108 134.303,41.042C134.718,41.5 134.914,41.98 134.914,42.438C134.914,42.918 134.674,43.572 134.216,44.401L132.973,46.647C132.842,46.865 132.755,47.04 132.689,47.214L132.689,42.394C132.711,42.176 132.711,41.98 132.689,41.827L132.689,38.992C133.322,39.319 133.889,39.45 134.347,39.407C134.892,39.363 135.394,39.058 135.83,38.534ZM135.83,48.065L135.83,50.289L134.39,50.987L132.864,49.439L135.83,48.065ZM132.689,30.639L132.689,32.82L131.534,32.079L128.677,36.484L131.686,38.425C132.035,38.665 132.362,38.862 132.689,38.992L132.689,41.827C132.668,41.806 132.668,41.784 132.668,41.74C132.515,41.282 131.817,40.65 130.574,39.843L127.717,37.989L124.097,43.55L123.333,43.049L123.333,40.912L130.792,29.418L132.689,30.639ZM132.689,42.394C132.602,42.787 132.428,43.245 132.122,43.812L131.119,45.557C131.119,45.579 131.119,45.6 131.097,45.622C130.574,46.56 130.312,47.192 130.312,47.585L132.34,48.915L132.58,48.545C132.449,48.326 132.428,48.087 132.471,47.803C132.515,47.629 132.58,47.432 132.689,47.214L132.689,42.394ZM123.333,28.044L123.333,26.016L124.315,26.321L123.748,28.153L123.333,28.044ZM123.333,26.016L123.333,28.044L115.177,25.536L113.825,29.963L121.741,32.384L121.218,34.107L113.301,31.686L111.774,36.659L120.52,39.341L119.953,41.195L109.223,37.902L113.737,23.094L123.333,26.016ZM123.333,40.912L122.352,42.416L123.333,43.049L123.333,40.912ZM94.589,36.637L94.589,34.74C95.963,34.631 96.988,34.107 97.708,33.191C98.471,32.166 98.842,30.661 98.798,28.698C98.776,26.823 98.34,25.384 97.512,24.38C96.813,23.53 95.832,23.05 94.589,22.963L94.589,21.152C96.552,21.196 98.057,21.828 99.147,23.006C100.325,24.271 100.913,26.125 100.957,28.546C101.001,31.076 100.456,33.038 99.278,34.456C98.166,35.808 96.596,36.55 94.589,36.637ZM103.771,37.051L106.192,21.741L108.285,22.069L105.864,37.378L103.771,37.051ZM94.589,21.152L94.589,22.963C94.414,22.941 94.218,22.941 94,22.941L90.402,23.006L90.62,34.827L94.218,34.761C94.349,34.761 94.48,34.74 94.589,34.74L94.589,36.637L94.349,36.637L88.548,36.746L88.265,21.262L94.153,21.152L94.589,21.152ZM70.512,42.503L70.512,40.453L71.973,41.544L70.512,42.503ZM70.512,31.054L73.565,41.042L75.484,40.453L71.799,28.437C71.951,28.611 72.082,28.785 72.235,28.938C72.388,29.091 72.54,29.222 72.693,29.375L83.096,38.12L85.277,37.444L80.74,22.635L78.821,23.224L82.507,35.241C82.376,35.067 82.224,34.914 82.049,34.74C81.875,34.565 81.678,34.369 81.438,34.194L71.232,25.536L70.512,25.776L70.512,31.054ZM70.512,25.776L70.512,31.054L69.029,26.212L70.512,25.776ZM70.512,40.453L70.512,42.503L70.076,42.787L66.172,39.799L61.81,42.634L61.81,40.475L64.667,38.621L61.81,36.397L61.81,33.998L70.512,40.453ZM61.81,48.152L61.81,46.255L62.203,47.912L61.81,48.152ZM57.318,47.432C57.754,48.152 57.928,48.937 57.885,49.766C57.841,50.442 57.667,51.075 57.318,51.707L57.318,47.432ZM61.81,33.998L58.713,31.686L57.318,32.602L57.318,35.503L60.371,49.09L61.81,48.152L61.81,46.255L61.069,43.114L61.81,42.634L61.81,40.475L60.611,41.239L58.932,34.194L61.81,36.397L61.81,33.998ZM51.8,43.071C51.909,43.289 51.974,43.507 52.018,43.747C52.149,44.379 52.084,45.033 51.8,45.731L51.8,43.071ZM51.8,45.818L51.8,47.563C52.214,47.301 52.607,47.149 52.956,47.105C53.654,46.996 54.33,47.258 54.962,47.89C55.595,48.545 55.878,49.221 55.835,49.94C55.769,50.682 55.377,51.424 54.613,52.165L51.8,54.978L51.8,57.617L56.074,53.364C56.598,52.819 57.012,52.274 57.318,51.707L57.318,47.432C57.099,47.062 56.838,46.713 56.489,46.386C55.791,45.688 55.028,45.273 54.199,45.186C53.37,45.077 52.585,45.295 51.8,45.818ZM57.318,32.602L57.318,35.503L56.751,32.951L57.318,32.602ZM51.429,58.01L49.117,55.698L49.117,52.732L51.582,55.196L51.8,54.978L51.8,57.617L51.429,58.01ZM49.117,40.802C49.772,40.933 50.382,41.304 50.971,41.893C51.342,42.264 51.625,42.656 51.8,43.071L51.8,45.731C51.8,45.775 51.778,45.797 51.778,45.84C51.778,45.818 51.8,45.818 51.8,45.818L51.8,47.563C51.429,47.803 51.036,48.13 50.622,48.545L49.117,50.05L49.117,47.607L49.183,47.563C49.946,46.778 50.36,46.08 50.448,45.448C50.535,44.793 50.273,44.183 49.685,43.594C49.51,43.419 49.314,43.267 49.117,43.136L49.117,40.802ZM49.117,55.698L46.827,53.408L46.827,49.897L49.117,47.607L49.117,50.05L47.787,51.38L49.117,52.732L49.117,55.698ZM46.827,41.151C47.264,40.933 47.7,40.802 48.114,40.737C48.463,40.693 48.79,40.715 49.117,40.802L49.117,43.136C48.747,42.918 48.354,42.831 47.94,42.874C47.591,42.918 47.22,43.071 46.827,43.332L46.827,41.151ZM46.827,53.408L40.459,47.04L44.886,42.634C45.562,41.958 46.217,41.457 46.827,41.151L46.827,43.332C46.544,43.528 46.239,43.768 45.933,44.074L43.207,46.8L46.566,50.158L46.827,49.897L46.827,53.408Z"/>
        <path d="M136.506,159.312L136.506,157.197C136.593,157.262 136.659,157.306 136.724,157.371L136.506,156.979L136.506,152.966L139.93,158.898L137.967,160.054L136.506,159.312ZM136.506,148.844L142.395,156.674L151.358,149.913L150.202,148.364L142.896,153.86L139.777,149.717L146.385,144.744L145.295,143.283L138.687,148.277L136.506,145.376L136.506,148.844ZM136.506,144.111L136.506,141.712L141.893,137.634L143.049,139.183L136.506,144.111ZM136.506,141.712L136.506,144.111L135.895,144.57L136.506,145.376L136.506,148.844L133.082,144.286L136.506,141.712ZM136.506,152.966L132.188,145.486L130.443,146.489L136.506,156.979L136.506,152.966ZM136.506,157.197L136.506,159.312L125.863,153.86C125.667,153.773 125.492,153.664 125.318,153.533C125.143,153.424 124.947,153.293 124.773,153.162L131.054,164.023L129.331,165.027L122.265,152.813L122.265,151.221L123.573,150.458L135.459,156.586C135.743,156.717 135.961,156.848 136.179,156.979C136.288,157.044 136.397,157.131 136.506,157.197ZM122.265,168.669C123.377,167.927 124.162,166.967 124.62,165.79C125.362,163.979 125.274,161.886 124.402,159.465C123.857,157.96 123.137,156.761 122.265,155.823L122.265,159.988C122.308,160.054 122.33,160.141 122.352,160.228C123.028,162.082 123.137,163.696 122.679,165.07C122.57,165.375 122.417,165.659 122.265,165.921L122.265,168.669ZM122.265,151.221L122.265,152.813L121.589,151.614L122.265,151.221ZM122.265,155.823L122.265,159.988C121.589,158.244 120.673,157.023 119.473,156.303C118.862,155.932 118.208,155.736 117.51,155.692L117.51,153.773C118.579,153.751 119.582,153.991 120.52,154.493C121.174,154.842 121.741,155.278 122.265,155.823ZM122.265,165.921L122.265,168.669C121.698,169.061 121.043,169.388 120.324,169.65C119.342,169.999 118.404,170.195 117.51,170.195L117.51,168.276C118.208,168.32 118.928,168.211 119.691,167.927C120.869,167.512 121.719,166.836 122.265,165.921ZM117.51,153.773L117.51,155.692C116.834,155.649 116.115,155.758 115.351,156.041C113.846,156.586 112.821,157.546 112.363,158.898C111.884,160.272 111.971,161.886 112.647,163.74C113.345,165.615 114.304,166.924 115.547,167.665C116.158,168.014 116.812,168.232 117.51,168.276L117.51,170.195C116.442,170.217 115.438,169.955 114.501,169.475C112.778,168.56 111.491,166.902 110.619,164.503C110.466,164.067 110.335,163.653 110.226,163.26L110.226,158.658C110.27,158.505 110.335,158.331 110.401,158.178C111.12,156.39 112.56,155.103 114.741,154.318C115.7,153.947 116.638,153.773 117.51,153.773ZM110.226,172.354L110.226,170.457L110.553,172.289L110.226,172.354ZM110.226,158.658L110.226,163.26C109.79,161.559 109.79,160.01 110.226,158.658ZM110.226,170.457L107.849,157.044L105.777,157.415L108.481,172.66L110.226,172.354L110.226,170.457ZM92.081,165.811L92.081,164.896C92.146,163.086 92.67,161.559 93.651,160.337C94.807,158.811 96.508,157.982 98.711,157.829C100.456,157.699 101.917,158.048 103.095,158.876C104.272,159.705 105.014,160.883 105.297,162.431L103.247,162.584C102.963,161.58 102.44,160.817 101.677,160.316C100.913,159.814 99.932,159.618 98.755,159.705C97.184,159.814 96.007,160.447 95.222,161.603C94.437,162.758 94.109,164.35 94.262,166.335C94.393,168.232 94.938,169.715 95.919,170.784C96.901,171.874 98.122,172.354 99.605,172.245C100.87,172.158 101.895,171.7 102.637,170.849C103.4,169.999 103.749,168.93 103.727,167.644L105.755,167.491C105.799,169.388 105.254,170.936 104.141,172.136C103.029,173.336 101.524,173.99 99.627,174.121C97.468,174.273 95.701,173.663 94.371,172.267C93.041,170.871 92.299,168.865 92.103,166.226C92.103,166.095 92.081,165.942 92.081,165.811ZM92.081,158.593L92.103,158.549L92.081,158.549L92.081,158.593ZM92.081,158.549L92.081,158.593L88.875,173.685L86.629,173.227L81.787,160.512C81.7,160.337 81.634,160.119 81.591,159.923C81.525,159.727 81.482,159.509 81.46,159.269L78.843,171.569L76.88,171.155L80.108,155.998L82.354,156.478L87.108,168.974C87.196,169.258 87.283,169.519 87.37,169.759C87.436,169.977 87.48,170.217 87.523,170.413L90.118,158.113L92.081,158.549ZM92.081,164.896L92.081,165.811L92.081,164.896ZM71.777,164.002L71.777,162.017L73.696,162.867L74.285,155.649L71.777,158.266L71.777,155.54L74.132,153.141L76.248,154.1L75.223,170.588L73.129,169.672L73.522,164.765L71.777,164.002ZM71.777,155.54L71.777,158.266L69.291,160.904L71.777,162.017L71.777,164.002L67.96,162.3L64.558,165.855L64.296,165.724L64.296,163.194L71.777,155.54ZM64.296,158.767C64.405,158.418 64.471,158.135 64.449,157.895C64.449,157.677 64.405,157.459 64.296,157.241L64.296,158.767ZM64.296,156.521C64.885,156.521 65.409,156.39 65.867,156.128C66.477,155.801 67.001,155.278 67.437,154.58C67.873,153.838 68.135,153.097 68.157,152.377C68.201,151.657 68.026,150.981 67.655,150.327C67.437,149.978 67.153,149.651 66.804,149.324C66.456,149.019 65.867,148.626 65.038,148.124L64.296,147.667L64.296,149.826C65.169,150.393 65.692,150.938 65.91,151.439C66.15,152.006 66.019,152.704 65.561,153.49C65.191,154.1 64.754,154.515 64.296,154.732L64.296,156.521ZM64.296,147.667L64.296,149.826C64.144,149.717 63.969,149.607 63.795,149.498L62.007,148.43L62.007,146.314L64.296,147.667ZM64.296,154.732L64.296,156.521C64.122,156.521 63.969,156.521 63.795,156.499C64.013,156.739 64.188,156.979 64.296,157.241L64.296,158.767C64.188,159.094 64.035,159.465 63.817,159.879L62.661,162.169C62.399,162.649 62.246,163.042 62.203,163.325C62.159,163.609 62.203,163.871 62.334,164.067L62.116,164.437L62.007,164.372L62.007,158.658C62.246,158.069 62.29,157.611 62.181,157.284C62.137,157.197 62.094,157.088 62.007,156.979L62.007,154.493C62.704,154.798 63.293,154.929 63.773,154.885C63.947,154.863 64.122,154.798 64.296,154.732ZM64.296,163.194L62.574,164.961L64.296,165.724L64.296,163.194ZM52.825,145.093L53.763,142.629L52.825,143.174L52.825,141.037L54.308,140.186L56.074,141.691L52.825,150.829L52.825,145.093ZM62.007,146.314L59.891,145.028L52.825,156.761L52.825,158.854L53.697,159.378L57.099,153.686L60.022,155.452C61.047,156.063 61.701,156.565 62.007,156.979L62.007,154.493C61.723,154.362 61.418,154.187 61.091,153.991L58.016,152.137L60.72,147.645L62.007,148.43L62.007,146.314ZM62.007,158.658L62.007,164.372L60.022,163.194C60.022,162.802 60.262,162.148 60.742,161.21C60.764,161.166 60.764,161.166 60.785,161.144L61.701,159.356C61.832,159.094 61.941,158.876 62.007,158.658ZM50.644,148.931L51.211,149.411L52.825,145.093L52.825,150.829L50.644,157.023L50.644,148.931ZM52.825,143.174L50.644,144.461L50.644,142.28L52.825,141.037L52.825,143.174ZM52.825,156.761L51.909,158.309L52.825,158.854L52.825,156.761ZM47.503,146.314L50.644,148.931L50.644,157.023L50.557,157.262L48.79,155.801L50.513,151.2L45.846,147.274L41.615,149.76L39.936,148.364L50.644,142.28L50.644,144.461L47.503,146.314Z" style="fill:rgb(35,31,32);"/>
    </g>
</svg>
